/* XPM */
static char *magick[] = {
/* columns rows colors chars-per-pixel */
"84 192 2 1",
"   c None",
".  c gray100",
/* pixels */
"                                                      ..............................",
"                                                      ..............................",
"                                                     ...............................",
"                                                     ...............................",
"                                                     ...............................",
"                                                    ................................",
"                                                    ................................",
"                                                   .................................",
"                                                  ..................................",
"                                                  ..................................",
"                                                 ...................................",
"                                                 ...................................",
"                                                ....................................",
"                                               .....................................",
"                                               .....................................",
"                                              ......................................",
"                                             .......................................",
"                                            ........................................",
"                                            ........................................",
"                                           .........................................",
"                                          ..........................................",
"                                         ...........................................",
"                                        ............................................",
"                                       .............................................",
"                                      ..............................................",
"                                     ...............................................",
"                                    ................................................",
"                                   .................................................",
"                                  ..................................................",
"                                ....................................................",
"                               .....................................................",
"                              ......................................................",
"                            ........................................................",
"                           .........................................................",
"                          ..........................................................",
"                        ............................................................",
"                       .............................................................",
"                     ...............................................................",
"                    ................................................................",
"                  ..................................................................",
"                ....................................................................",
"               .....................................................................",
"             .......................................................................",
"           .........................................................................",
"         ...........................................................................",
"       .............................................................................",
"     ...............................................................................",
"  ..................................................................................",
"....................................................................................",
"....................................................................................",
"....................................................................................",
"....................................................................................",
"....................................................................................",
"....................................................................................",
".............................................. .....................................",
".............................................  .....................................",
"............................................   .....................................",
"..........................................     .....................................",
".........................................      .....................................",
"........................................       .....................................",
".......................................        .....................................",
".....................................          .....................................",
"....................................           .....................................",
"...................................            .....................................",
".................................              .....................................",
"................................               .....................................",
"..............................                 .....................................",
".............................                  .....................................",
"...........................                    .....................................",
".........................                      .....................................",
"........................                       .....................................",
"......................                         .....................................",
"....................                           .....................................",
"..................                             .....................................",
"................                               .....................................",
"..............                                 .....................................",
"...........                                    .....................................",
".........                                      .....................................",
".......                                        .....................................",
"....                                           .....................................",
".                                              .....................................",
"                                               .....................................",
"                                               .....................................",
"                                               .....................................",
"                                               .....................................",
"                                               .....................................",
"                                               .....................................",
"                                               .....................................",
"                                               .....................................",
"                                               .....................................",
"                                               .....................................",
"                                               .....................................",
"                                               .....................................",
"                                               .....................................",
"                                               .....................................",
"                                               .....................................",
"                                               .....................................",
"                                               .....................................",
"                                               .....................................",
"                                               .....................................",
"                                               .....................................",
"                                               .....................................",
"                                               .....................................",
"                                               .....................................",
"                                               .....................................",
"                                               .....................................",
"                                               .....................................",
"                                               .....................................",
"                                               .....................................",
"                                               .....................................",
"                                               .....................................",
"                                               .....................................",
"                                               .....................................",
"                                               .....................................",
"                                               .....................................",
"                                               .....................................",
"                                               .....................................",
"                                               .....................................",
"                                               .....................................",
"                                               .....................................",
"                                               .....................................",
"                                               .....................................",
"                                               .....................................",
"                                               .....................................",
"                                               .....................................",
"                                               .....................................",
"                                               .....................................",
"                                               .....................................",
"                                               .....................................",
"                                               .....................................",
"                                               .....................................",
"                                               .....................................",
"                                               .....................................",
"                                               .....................................",
"                                               .....................................",
"                                               .....................................",
"                                               .....................................",
"                                               .....................................",
"                                               .....................................",
"                                               .....................................",
"                                               .....................................",
"                                               .....................................",
"                                               .....................................",
"                                               .....................................",
"                                               .....................................",
"                                               .....................................",
"                                               .....................................",
"                                               .....................................",
"                                               .....................................",
"                                               .....................................",
"                                               .....................................",
"                                               .....................................",
"                                               .....................................",
"                                               .....................................",
"                                               .....................................",
"                                               .....................................",
"                                               .....................................",
"                                               .....................................",
"                                               .....................................",
"                                               .....................................",
"                                               .....................................",
"                                               .....................................",
"                                               .....................................",
"                                               .....................................",
"                                               .....................................",
"                                               .....................................",
"                                               .....................................",
"                                               .....................................",
"                                               .....................................",
"                                               .....................................",
"                                               .....................................",
"                                               .....................................",
"                                               .....................................",
"                                               .....................................",
"                                               .....................................",
"                                               .....................................",
"                                               .....................................",
"                                               .....................................",
"                                               .....................................",
"                                               .....................................",
"                                               .....................................",
"                                               .....................................",
"                                               .....................................",
"                                               .....................................",
"                                               .....................................",
"                                               .....................................",
"                                               .....................................",
"                                               .....................................",
"                                               .....................................",
"                                               .....................................",
"                                               .....................................",
"                                               ....................................."
};
